<svg width="34" height="34" viewBox="0 0 34 34" fill="none" xmlns="http://www.w3.org/2000/svg">
<path fill-rule="evenodd" clip-rule="evenodd" d="M17 33.8C21.4556 33.8 25.7287 32.03 28.8793 28.8794C32.03 25.7288 33.7999 21.4556 33.7999 17C33.7999 12.5444 32.03 8.27121 28.8793 5.1206C25.7287 1.96999 21.4556 0.199997 17 0.199997C12.5443 0.199997 8.27117 1.96999 5.12056 5.1206C1.96995 8.27121 0.199951 12.5444 0.199951 17C0.199951 21.4556 1.96995 25.7288 5.12056 28.8794C8.27117 32.03 12.5443 33.8 17 33.8ZM24.7846 15.5153L18.4846 9.2153C18.0886 8.83276 17.5581 8.6211 17.0075 8.62588C16.4569 8.63067 15.9302 8.85152 15.5408 9.24088C15.1515 9.63023 14.9306 10.1569 14.9258 10.7076C14.9211 11.2582 15.1327 11.7886 15.5153 12.1847L18.2306 14.9H10.7C10.143 14.9 9.60885 15.1212 9.21503 15.5151C8.8212 15.9089 8.59995 16.443 8.59995 17C8.59995 17.557 8.8212 18.0911 9.21503 18.4849C9.60885 18.8787 10.143 19.1 10.7 19.1H18.2306L15.5153 21.8153C15.3147 22.009 15.1547 22.2407 15.0446 22.4969C14.9346 22.7532 14.8766 23.0287 14.8742 23.3076C14.8718 23.5864 14.9249 23.8629 15.0305 24.121C15.1361 24.3791 15.292 24.6136 15.4892 24.8107C15.6864 25.0079 15.9209 25.1638 16.1789 25.2694C16.437 25.375 16.7136 25.4281 16.9924 25.4257C17.2712 25.4233 17.5468 25.3654 17.803 25.2553C18.0592 25.1453 18.2909 24.9853 18.4846 24.7847L24.7846 18.4847C25.1783 18.0909 25.3995 17.5568 25.3995 17C25.3995 16.4432 25.1783 15.9091 24.7846 15.5153Z" fill="#9EA2A2" fill-opacity="0.6"/>
</svg>
