<svg width="128" height="203" viewBox="0 0 128 203" fill="none" xmlns="http://www.w3.org/2000/svg">
<path d="M38.75 92.837L40.25 85.337C39.05 89.337 37.0833 88.6703 36.25 87.837V73.837L33.75 90.837C34.15 93.237 37.25 93.1703 38.75 92.837Z" fill="#EEEEEE" fill-opacity="0.77"/>
<path d="M44.5 102.994V107.494L41 105.994L39.5 118.994H36.5C37.3 115.794 32.1667 111.327 29.5 109.494L30.5 104.494C32.5 102.094 36.6667 110.161 38.5 114.494L39.5 102.994C39.9 99.3938 43 101.494 44.5 102.994Z" fill="#EEEEEE" fill-opacity="0.77"/>
<path d="M38.75 145.994L40.25 138.494C39.05 142.494 37.0833 141.827 36.25 140.994V126.994L33.75 143.994C34.15 146.394 37.25 146.327 38.75 145.994Z" fill="#EEEEEE" fill-opacity="0.77"/>
<path d="M87 2.65213V8.6562L82.1 6.6549L80 24H75.8C76.92 19.7304 69.7333 13.7708 66 11.3247L67.4 4.65355C70.2 1.45142 76.0333 12.2143 78.6 17.9959L80 2.65213C80.56 -2.15113 84.9 0.650769 87 2.65213Z" fill="#EEEEEE" fill-opacity="0.77"/>
<path d="M77 174.652V180.656L72.3333 178.655L70.3333 196H66.3333C67.4 191.73 60.5556 185.771 57 183.325L58.3333 176.654C61 173.451 66.5556 184.214 69 189.996L70.3333 174.652C70.8667 169.849 75 172.651 77 174.652Z" fill="#EEEEEE" fill-opacity="0.77"/>
<path d="M76.061 126.368C69.7459 118.045 63.6112 100.319 89.5934 96C96.3596 101.399 109.486 114.491 107.862 123.669V136.491C106.734 139.415 102.991 145.938 97.0363 148.638L61.1754 162.809C55.3114 166.184 43.042 174.147 40.8769 179.006C35.2384 186.204 23.4201 200.601 21.2549 200.601C18.5484 200.601 12.4588 205.999 6.36927 200.601L0.2797 191.153C-0.622459 182.155 0.144376 161.865 10.429 152.687C7.72249 158.985 2.71547 172.122 4.33938 174.282C3.66277 179.231 3.1215 189.533 6.36927 191.153C7.06854 191.501 7.52943 191.773 7.80866 191.982C11.3311 190.649 16.2821 188.371 21.2549 185.282C27.2202 181.578 33.217 176.708 36.8171 170.907C41.1024 166.409 51.0261 157.141 56.4391 156.061C69.0693 149.537 95.683 136.491 101.096 136.491C102.224 134.016 102.449 128.527 94.3298 126.368H76.061Z" fill="#EEEEEE" fill-opacity="0.77"/>
<path d="M118.667 0L128 31.6935L123.333 28.3218L128 165.211L123.333 176L114 9.44061L118.667 0Z" fill="#EEEEEE" fill-opacity="0.77"/>
<path d="M11.6667 0L21 31.6935L16.3333 28.3218L21 165.211L16.3333 176L7 9.44061L11.6667 0Z" fill="#EEEEEE" fill-opacity="0.77"/>
<path d="M98 76.8621L86.551 69L79.8163 76.8621L68.3673 72.2759L65 82.1034L77.7959 88L82.5102 80.1379L93.2857 86.6897L98 76.8621Z" fill="#EEEEEE" fill-opacity="0.77"/>
<path d="M94 114L88.5061 110.079C78.617 106.942 79.3496 111.386 80.9519 114H94Z" fill="#121111" stroke="black"/>
<path d="M114 160L112 165.333L84 176V170.667L114 160Z" fill="#EEEEEE" fill-opacity="0.77"/>
<path d="M102 21L99.9545 26.434L27 57L29.7273 50.2075L102 21Z" fill="#EEEEEE" fill-opacity="0.77"/>
</svg>
