<svg width="185" height="42" viewBox="0 0 185 42" fill="none" xmlns="http://www.w3.org/2000/svg">
<path d="M9.57446 15.0448V27.5821" stroke="#4C230C" stroke-width="2" stroke-miterlimit="10"/>
<path d="M13.4043 12.5374V30.0896" stroke="#4C230C" stroke-width="2" stroke-miterlimit="10"/>
<path d="M18.1915 8.77612V33.8508" stroke="#4C230C" stroke-width="2" stroke-miterlimit="10"/>
<path d="M22.0212 6.89551V35.1045" stroke="#4C230C" stroke-width="2" stroke-miterlimit="10"/>
<path d="M25.8511 1.25378V40.7463" stroke="#4C230C" stroke-width="2" stroke-miterlimit="10"/>
<path d="M30.6383 4.38806V37.6119" stroke="#4C230C" stroke-width="2" stroke-miterlimit="10"/>
<path d="M34.4681 8.77612V33.8508" stroke="#4C230C" stroke-width="2" stroke-miterlimit="10"/>
<path d="M38.2979 11.9104V30.7164" stroke="#4C230C" stroke-width="2" stroke-miterlimit="10"/>
<path d="M43.0851 1.25378V40.7463" stroke="#4C230C" stroke-width="2" stroke-miterlimit="10"/>
<path d="M46.9149 6.26868V35.7314" stroke="#4C230C" stroke-width="2" stroke-miterlimit="10"/>
<path d="M50.7446 10.0299V32.5971" stroke="#4C230C" stroke-width="2" stroke-miterlimit="10"/>
<path d="M55.5319 10.6567V31.9702" stroke="#4C230C" stroke-width="2" stroke-miterlimit="10"/>
<path d="M59.3617 13.1642V29.4627" stroke="#4C230C" stroke-width="2" stroke-miterlimit="10"/>
<path d="M63.1915 11.2836V31.3433" stroke="#4C230C" stroke-width="2" stroke-miterlimit="10"/>
<path d="M67.9788 12.5374V30.0896" stroke="#4C230C" stroke-width="2" stroke-miterlimit="10"/>
<path d="M71.8085 12.5374V30.0896" stroke="#4C230C" stroke-width="2" stroke-miterlimit="10"/>
<path d="M75.6383 7.52234V34.4776" stroke="#4C230C" stroke-width="2" stroke-miterlimit="10"/>
<path d="M80.4255 9.40295V33.2239" stroke="#4C230C" stroke-width="2" stroke-miterlimit="10"/>
<path d="M84.2554 3.76123V38.2388" stroke="#4C230C" stroke-width="2" stroke-miterlimit="10"/>
<path d="M88.0851 0.626831V41.3731" stroke="#4C230C" stroke-width="2" stroke-miterlimit="10"/>
<path d="M92.8723 4.38806V37.6119" stroke="#4C230C" stroke-width="2" stroke-miterlimit="10"/>
<path d="M96.7021 1.25378V40.7463" stroke="#4C230C" stroke-width="2" stroke-miterlimit="10"/>
<path d="M101.489 10.0299V32.5971" stroke="#4C230C" stroke-width="2" stroke-miterlimit="10"/>
<path d="M105.319 13.791V28.8358" stroke="#4C230C" stroke-width="2" stroke-miterlimit="10"/>
<path d="M109.149 11.2836V31.3433" stroke="#4C230C" stroke-width="2" stroke-miterlimit="10"/>
<path d="M113.936 6.26868V35.7314" stroke="#4C230C" stroke-width="2" stroke-miterlimit="10"/>
<path d="M117.766 0V42" stroke="#4C230C" stroke-width="2" stroke-miterlimit="10"/>
<path d="M121.596 0V42" stroke="#4C230C" stroke-width="2" stroke-miterlimit="10"/>
<path d="M126.383 4.38806V37.6119" stroke="#4C230C" stroke-width="2" stroke-miterlimit="10"/>
<path d="M130.213 8.77612V33.8508" stroke="#4C230C" stroke-width="2" stroke-miterlimit="10"/>
<path d="M134.043 14.418V28.209" stroke="#4C230C" stroke-width="2" stroke-miterlimit="10"/>
<path d="M138.83 15.0448V27.5821" stroke="#4C230C" stroke-width="2" stroke-miterlimit="10"/>
<path d="M142.66 12.5374V30.0896" stroke="#4C230C" stroke-width="2" stroke-miterlimit="10"/>
<path d="M146.489 8.77612V33.8508" stroke="#4C230C" stroke-width="2" stroke-miterlimit="10"/>
<path d="M151.277 6.89551V35.1045" stroke="#4C230C" stroke-width="2" stroke-miterlimit="10"/>
<path d="M155.106 1.25378V40.7463" stroke="#4C230C" stroke-width="2" stroke-miterlimit="10"/>
<path d="M158.936 4.38806V37.6119" stroke="#4C230C" stroke-width="2" stroke-miterlimit="10"/>
<path d="M0 21.9403H185" stroke="#4C230C" stroke-width="2" stroke-miterlimit="10"/>
<path d="M164 5.64185V41.3732" stroke="#4C230C" stroke-width="2" stroke-miterlimit="10"/>
<path d="M167.83 6.26868V40.7463" stroke="#4C230C" stroke-width="2" stroke-miterlimit="10"/>
<path d="M172.617 10.0299V36.9851" stroke="#4C230C" stroke-width="2" stroke-miterlimit="10"/>
<path d="M176.447 18.1791V29.4627" stroke="#4C230C" stroke-width="2" stroke-miterlimit="10"/>
</svg>
