<svg width="109" height="96" viewBox="0 0 109 96" fill="none" xmlns="http://www.w3.org/2000/svg">
<path d="M98.4064 21.3314L29.5813 48.1495L28.0695 49.9306C34.7439 48.8388 34.3878 51.7916 38.2577 52.2244C34.3057 54.6727 30.6741 61.0857 26.7083 62.0369C23.4793 62.8116 17.4513 64.3831 15.3261 64.9401L9.57739 71.7087L10.8975 74.2204L97.5492 45.2546L99.428 22.5418L98.4064 21.3314Z" fill="#381D0B"/>
<path d="M82.4066 72.9962C79.5555 70.5479 80.3087 63.1755 78.3806 59.3459C82.2231 60.5508 85.2111 58.1769 91.2555 63.0652L91.4555 58.9241L32.5995 14.2098L11.1467 29.5061L10.0156 31.0252L88.3524 89.4063L90.0505 88.0967L90.4339 80.1398C88.8892 78.7474 84.7044 74.9675 82.4066 72.9962Z" fill="#381D0B"/>
<path d="M91.2556 63.0653L89.7876 64.215C89.7876 64.215 88.0019 62.2988 85.3289 61.5379C82.6558 60.7769 81.5138 61.9983 77.8658 60.5729C76.7346 59.3708 77.6467 58.2294 77.6467 58.2294L85.8876 58.5133L91.2556 63.0653Z" fill="#381D0B"/>
<path d="M82.4066 72.9963C79.5555 70.548 80.3087 63.1755 78.3806 59.346C82.2231 60.5508 85.2111 58.177 91.2555 63.0653L91.4555 58.9241L29.1787 12.575L11.1467 29.5061L90.0505 88.0995L90.4339 80.1426C88.8892 78.7475 84.7044 74.9676 82.4066 72.9963Z" fill="#4C230C"/>
<path d="M60.6909 36.0266L33.9551 46.4456L52.5924 60.2834L80.6701 50.8983L60.6909 36.0266Z" fill="#381D0B"/>
<path d="M28.0695 49.9306L28.8883 51.8109C28.8883 51.8109 30.8712 50.7108 32.8513 51.8109C34.8315 52.911 36.4994 54.5239 39.6133 53.7022C40.2433 51.8026 39.6133 50.3386 39.6133 50.3386C39.6133 50.3386 32.5665 48.1605 32.4104 48.1605C32.2543 48.1578 28.0695 49.9306 28.0695 49.9306Z" fill="#381D0B"/>
<path d="M29.5813 48.1495L28.0695 49.9306C34.7439 48.8388 34.3878 51.7916 38.2577 52.2244C34.3057 54.6727 30.6741 61.0857 26.7083 62.0369C23.4793 62.8116 17.4513 64.3831 15.3261 64.9401L9.57739 71.7087L96.1004 43.763L98.4064 21.3314L29.5813 48.1495Z" fill="#682F13"/>
<path d="M60.8443 34.728L29.1787 45.3097L48.0132 59.346L50.0673 58.6264L60.8443 34.728Z" fill="#381D0B"/>
<path d="M60.8443 34.728L31.3971 44.568L50.0672 58.6264L60.8443 34.728Z" fill="#4C230C"/>
<path d="M12.9351 28.9273C12.9351 28.9273 45.2086 54.0084 46.4055 54.8934C47.5996 55.7812 50.0535 57.3003 53.8932 56.0955C57.7303 54.8934 94.8651 42.8753 94.8651 42.8753L97.5436 20.2507L97.3026 19.6497L60.4991 31.0805L32.5638 10.4355L12.9351 28.2628V28.9273Z" fill="#381D0B"/>
<path d="M12.9351 28.2628C12.9351 28.2628 45.2086 53.3439 46.4055 54.2289C47.5996 55.1167 50.0535 56.6358 53.8933 55.431C57.7303 54.2289 94.3448 42.3845 94.3448 42.3845L97.3026 19.6469L60.4991 30.416L32.5638 9.76831L12.9351 28.2628Z" fill="#844914"/>
<path d="M34.1385 9.32739L13.9429 28.0727L46.2164 53.1539C46.2164 53.1539 47.9775 52.3295 49.2373 52.3295C50.4944 52.3295 53.2003 54.7998 53.2003 54.7998L92.7727 41.8168L95.9195 19.3328L92.5234 17.8137L61.3782 29.0873L35.3326 9.32739H34.1385Z" fill="#ECB67B"/>
<path d="M93.1561 18.0974C92.8521 19.9447 92.5207 21.7864 92.1838 23.6253L91.1458 29.1423L90.0531 34.6454L89.4862 37.3942L88.8918 40.1375L89.3629 37.3694L89.8614 34.6068L90.8994 29.0899L91.9949 23.5867C92.3728 21.7561 92.7508 19.9254 93.1561 18.0974Z" fill="#E2A05D"/>
<path d="M93.6381 18.4089C93.3697 20.2286 93.0766 22.0428 92.7781 23.8569L91.8524 29.2939L90.8692 34.7198L90.357 37.43L89.8175 40.1347L90.2338 37.4079L90.6775 34.6867L91.6059 29.2498L92.5891 23.8238C92.926 22.0179 93.2683 20.2121 93.6381 18.4089Z" fill="#E2A05D"/>
<path d="M94.268 18.6957C94.0133 20.5181 93.7312 22.335 93.4464 24.1519L92.559 29.5944L91.6141 35.0286L91.1211 37.7416L90.6035 40.4518L91.0006 37.7223L91.4251 34.9983L92.3125 29.5558L93.2574 24.1216C93.5806 22.3074 93.9092 20.4988 94.268 18.6957Z" fill="#E2A05D"/>
<path d="M94.8788 18.9631C94.6378 20.7856 94.3721 22.6052 94.101 24.4221L93.2574 29.8701L92.3564 35.3098L91.8853 38.0256L91.3868 40.7385L91.762 38.0063L92.1646 35.2795L93.0082 29.8315L93.9092 24.3946C94.2215 22.5804 94.5364 20.769 94.8788 18.9631Z" fill="#E2A05D"/>
<path d="M95.4841 19.2499C95.2568 21.0944 95.0021 22.9361 94.7419 24.7751L93.934 30.2892L93.0685 35.7951L92.6166 38.5439L92.1373 41.2899L92.4961 38.5246L92.8795 35.7648L93.6875 30.2506L94.5529 24.7447C94.8514 22.9113 95.1527 21.0778 95.4841 19.2499Z" fill="#E2A05D"/>
<path d="M17.2157 27.1241C17.2157 27.1241 24.5145 32.3818 30.6795 35.864C36.8444 39.3462 48.4212 47.9593 49.2373 52.3293C52.9483 48.53 57.6672 43.6528 66.5381 42.7016C75.4089 41.7504 86.4187 40.6117 87.9278 39.7239C88.6837 35.9247 92.5207 17.8107 92.5207 17.8107C92.5207 17.8107 88.1168 18.6985 83.3979 19.0128C78.679 19.3298 64.0211 22.4315 61.3782 29.0816C59.2393 23.7605 56.0924 20.5953 49.9905 17.8079C43.8885 15.0205 35.3326 9.32166 35.3326 9.32166L17.2157 27.1241Z" fill="#FFE6BD"/>
<path d="M49.2373 52.3293C52.9483 48.53 57.6672 43.6527 66.5381 42.7015C75.4089 41.7504 86.4187 40.6117 87.9278 39.7239C88.6837 35.9247 92.5207 17.8107 92.5207 17.8107C92.5207 17.8107 88.1168 18.6984 83.3979 19.0128C78.679 19.3298 64.0211 22.4315 61.3782 29.0816L49.2373 52.3293Z" fill="#FFE9D2"/>
<path d="M72.955 42.8284C56.1773 46.2058 49.2373 52.3293 49.2373 52.3293C50.4944 52.3293 53.2003 54.7996 53.2003 54.7996L92.7727 41.8165C92.7727 41.8165 89.4807 40.3801 87.9278 39.7267C85.9997 40.8461 82.4777 40.8571 72.955 42.8284Z" fill="#FFC892"/>
<path d="M39.1066 40.1072C33.7578 36.4348 17.213 27.1241 17.213 27.1241L13.9429 28.0753L46.2164 53.1564C46.2164 53.1564 47.9775 52.3321 49.2373 52.3321C49.8672 48.4032 44.4554 43.7796 39.1066 40.1072Z" fill="#FFC892"/>
<path d="M39.1067 40.1072C33.7579 36.4348 17.213 27.1241 17.213 27.1241C17.213 27.1241 38.5398 41.4995 41.2457 43.3385C43.9516 45.1747 49.0457 49.8617 49.2346 52.3321C49.8673 48.4033 44.4555 43.7796 39.1067 40.1072Z" fill="#ECB67B"/>
<path d="M16.9008 27.9457C16.9008 27.9457 44.3925 47.5154 49.2373 52.3292C45.7125 47.5788 25.7716 33.1593 16.9008 27.9457Z" fill="#ECB67B"/>
<path d="M15.9969 27.9457L20.0038 30.893L23.9941 33.8596L31.9475 39.8259L39.868 45.8391L43.8173 48.8636L47.7474 51.9074L43.7433 48.9629L39.753 45.9935L31.7969 40.0272L23.8764 34.014L19.9298 30.9895L15.9969 27.9457Z" fill="#ECB67B"/>
<path d="M50.4944 52.3292C51.9541 51.5324 53.4386 50.7853 54.9257 50.0409C56.4183 49.3102 57.9219 48.6017 59.4392 47.9179C60.1978 47.576 60.9592 47.2397 61.7288 46.9254C62.4956 46.6056 63.268 46.294 64.065 46.0211C65.6507 45.4862 67.2638 45.0643 68.877 44.6701C70.4983 44.2979 72.1224 43.9477 73.7492 43.6196C75.376 43.2915 77.0029 42.9607 78.6379 42.6657C80.2702 42.3624 81.8998 42.0591 83.5266 41.7393C85.1534 41.4195 86.7857 41.1162 88.3687 40.6172C87.5964 40.9232 86.7994 41.1658 85.9942 41.3754C85.1918 41.5959 84.3838 41.7862 83.5759 41.9819C81.9573 42.3541 80.3332 42.6988 78.7119 43.0489C75.4664 43.741 72.21 44.3833 68.992 45.1636C67.3816 45.5413 65.7739 45.9494 64.2101 46.4594C63.4323 46.7186 62.66 47.0219 61.8931 47.3334L59.5926 48.2791C58.0616 48.9187 56.5443 49.586 55.0298 50.2697C53.5098 50.9314 52.0034 51.6345 50.4944 52.3292Z" fill="#ECB67B"/>
<path d="M51.7843 52.6766C54.7559 51.3174 57.7849 50.0905 60.8606 48.9877C62.397 48.4335 63.9471 47.9152 65.511 47.4409C66.2888 47.1956 67.0775 46.9805 67.8636 46.7544C68.6523 46.5449 69.4438 46.3326 70.2353 46.1368C73.4014 45.3511 76.5591 44.5239 79.7115 43.6858C81.289 43.2695 82.8638 42.8421 84.4358 42.401C85.2218 42.1832 86.0079 41.9654 86.7912 41.7338C87.5744 41.5022 88.355 41.2706 89.1218 40.9894C86.0572 42.1198 82.9021 42.98 79.7635 43.8733C76.6194 44.75 73.4589 45.5744 70.2956 46.3822C67.1241 47.1432 64.0074 48.1054 60.9235 49.1696C59.3816 49.699 57.8479 50.2614 56.3252 50.8487C54.8024 51.4304 53.2851 52.0342 51.7843 52.6766Z" fill="#ECB67B"/>
<path d="M49.1579 47.066L48.9032 46.6083C48.0487 45.1223 44.0474 41.5022 39.9694 38.883C36.0721 36.3796 24.5666 28.8252 24.4488 28.748L24.1749 28.555L38.8602 13.2367L39.093 13.3966C39.1916 13.4545 48.9552 19.1065 52.7731 21.6127C56.6046 24.1299 59.5707 28.0201 59.5981 28.0587L59.7953 28.3923L59.7542 28.464C59.6967 28.566 53.9124 38.861 49.2675 46.873L49.1579 47.066ZM24.7145 28.6212C25.9907 29.4593 36.4309 36.3079 40.1036 38.6707C43.7954 41.0418 47.8515 44.5295 49.0073 46.2995C53.4249 38.6707 58.8203 29.0816 59.3461 28.147C58.9408 27.6259 56.1555 24.1382 52.6334 21.825C49.0128 19.4484 40.0241 14.2292 39.0519 13.6668L24.7145 28.6212Z" fill="#E2A05D"/>
<path d="M53.414 46.953L52.8224 47.5568L62.7038 28.2518L62.7148 28.238C62.7477 28.2021 66.0944 24.6731 69.978 23.2449C75.8417 21.235 85.8464 20.2287 85.9477 20.2204L86.6078 20.1515L86.5502 20.3335C86.5502 20.3335 82.5873 33.1263 81.0152 38.1938L80.9906 38.2765L80.4318 38.3316C58.3547 39.8315 53.4633 46.8813 53.414 46.953ZM62.9147 28.4007L53.8659 46.079C55.7939 44.2042 62.4601 39.3132 80.3333 38.0863C81.8095 33.3276 85.2986 22.0649 85.7861 20.4934C84.3757 20.6423 75.4528 21.6403 70.0656 23.4876C66.3574 24.8495 63.1366 28.1663 62.9147 28.4007Z" fill="#E2A05D"/>
<path d="M41.7878 85.5465L41.67 85.5328C42.6286 76.7818 41.681 72.5056 41.67 72.4642L41.7878 72.4366C41.796 72.478 42.7491 76.7708 41.7878 85.5465Z" fill="#992B2B"/>
<path d="M42.1467 85.541L42.0289 85.5273C42.9875 76.7763 42.0399 72.5001 42.0289 72.4587L42.1467 72.4312C42.1549 72.4753 43.108 76.7653 42.1467 85.541Z" fill="#992B2B"/>
<path d="M41.1251 85.4501L41.0073 85.4363C41.9659 76.6826 41.0922 72.2988 41.0813 72.2575L41.199 72.2327C41.2073 72.2768 42.0864 76.6771 41.1251 85.4501Z" fill="#992B2B"/>
<path d="M37.94 84.7856L37.8195 84.7746C37.8304 84.6781 38.8082 75.0752 41.1744 72.2327L41.2648 72.3099C38.9232 75.1248 37.9509 84.6891 37.94 84.7856Z" fill="#992B2B"/>
<path d="M38.1398 84.7856L38.0193 84.7746C38.0275 84.6781 39.008 75.0752 41.3743 72.2327L41.4646 72.3099C39.123 75.1248 38.148 84.6891 38.1398 84.7856Z" fill="#992B2B"/>
<path d="M38.5095 85.1136L38.389 85.1026C39.2901 75.5714 41.514 72.1554 41.5359 72.1223L41.6345 72.1885C41.6126 72.2216 39.4079 75.621 38.5095 85.1136Z" fill="#992B2B"/>
<path d="M38.8273 85.2267L38.7068 85.2157C39.6078 75.6844 41.8317 72.2684 41.8536 72.2354L41.9522 72.3015C41.9303 72.3374 39.7256 75.7341 38.8273 85.2267Z" fill="#992B2B"/>
<path d="M40.8485 85.5244L40.7307 85.5079C40.7444 85.4059 42.1549 75.2295 41.2429 72.4449L41.3579 72.4062C42.2781 75.2185 40.906 85.1053 40.8485 85.5244Z" fill="#992B2B"/>
<path d="M41.336 85.6347L41.2183 85.6209C41.232 85.5189 42.4425 75.3095 41.4757 72.5497L41.588 72.5083C42.563 75.2985 41.3853 85.2157 41.336 85.6347Z" fill="#992B2B"/>
<path d="M39.1258 85.1054L39.0081 85.0888C39.0738 84.6284 40.6157 73.771 41.3607 72.5221L41.4647 72.5828C40.7307 73.8096 39.1423 84.9923 39.1258 85.1054Z" fill="#992B2B"/>
<path d="M40.3856 85.3177L40.2678 85.2984C40.2815 85.2157 41.6043 77.0768 41.4838 72.7454L41.6043 72.7427C41.7248 77.0823 40.3993 85.235 40.3856 85.3177Z" fill="#992B2B"/>
<path d="M40.1911 85.3122L40.0734 85.2929C40.0871 85.2102 41.4099 77.0713 41.2894 72.7399L41.4099 72.7372C41.5276 77.0796 40.2021 85.2322 40.1911 85.3122Z" fill="#992B2B"/>
<path d="M39.8104 85.2929L39.6899 85.2819C40.1418 80.9175 41.5468 72.0149 41.5605 71.9266L41.6783 71.9459C41.6646 72.0314 40.2596 80.9312 39.8104 85.2929Z" fill="#992B2B"/>
<path d="M39.6105 85.2929L39.49 85.2819C39.9419 80.9175 41.3469 72.0149 41.3606 71.9266L41.4783 71.9459C41.4674 72.0314 40.0597 80.9312 39.6105 85.2929Z" fill="#992B2B"/>
<path d="M41.9851 85.5465L41.8591 85.5299C42.919 76.779 41.8701 72.5055 41.8619 72.4642L41.9851 72.4338C41.9933 72.478 43.0478 76.7707 41.9851 85.5465Z" fill="#BC4646"/>
<path d="M41.2511 85.4527L41.1251 85.4362C42.185 76.6852 41.1361 72.4118 41.1279 72.3704L41.2511 72.3401C41.2621 72.3814 42.3137 76.6742 41.2511 85.4527Z" fill="#BC4646"/>
<path d="M37.7345 84.7855L37.6085 84.7717C37.6195 84.6752 38.7013 75.0696 41.3168 72.2271L41.4099 72.3125C38.8218 75.1275 37.7455 84.689 37.7345 84.7855Z" fill="#BC4646"/>
<path d="M37.9536 84.7855L37.8276 84.7717C37.8386 84.6752 38.9204 75.0696 41.5359 72.2271L41.629 72.3125C39.0409 75.1275 37.9646 84.689 37.9536 84.7855Z" fill="#BC4646"/>
<path d="M38.3042 85.0916L38.1782 85.0778C39.1751 75.5438 41.6291 72.1278 41.6537 72.0947L41.755 72.1692C41.7331 72.205 39.2984 75.599 38.3042 85.0916Z" fill="#BC4646"/>
<path d="M38.6082 85.2046L38.4822 85.1908C39.4791 75.6569 41.933 72.2408 41.9577 72.2078L42.059 72.2822C42.0344 72.3153 39.5996 75.712 38.6082 85.2046Z" fill="#BC4646"/>
<path d="M41.0374 85.5493L40.9142 85.53C40.9306 85.428 42.489 75.2543 41.4811 72.4725L41.5989 72.4283C42.615 75.2406 41.1004 85.1302 41.0374 85.5493Z" fill="#992B2B"/>
<path d="M41.4839 85.6375L41.3579 85.6209C41.3716 85.5189 42.7081 75.3122 41.6427 72.5552L41.7605 72.5083C42.8396 75.2957 41.5387 85.2157 41.4839 85.6375Z" fill="#BC4646"/>
<path d="M38.8957 85.064L38.7725 85.0447C38.8437 84.5843 40.5499 73.7242 41.3715 72.4752L41.4756 72.5441C40.6677 73.771 38.9149 84.9537 38.8957 85.064Z" fill="#BC4646"/>
<path d="M40.5609 85.3618L40.4376 85.3397C40.4513 85.257 41.9138 77.1181 41.7824 72.7895L41.9083 72.7867C42.0371 77.1291 40.5746 85.2818 40.5609 85.3618Z" fill="#BC4646"/>
<path d="M39.8981 85.2984L39.7749 85.2736C39.7913 85.1881 41.525 76.7184 41.3935 72.387L41.5195 72.3843C41.6537 76.7294 39.9173 85.2129 39.8981 85.2984Z" fill="#BC4646"/>
<path d="M39.7996 85.2929L39.6736 85.2791C40.172 80.9146 41.7249 72.0121 41.7386 71.9238L41.8619 71.9459C41.8482 72.0341 40.298 80.9339 39.7996 85.2929Z" fill="#BC4646"/>
<path d="M39.3613 85.2929L39.2354 85.2791C39.7338 80.9146 41.2867 72.0121 41.3004 71.9238L41.4236 71.9459C41.4127 72.0341 39.8598 80.9339 39.3613 85.2929Z" fill="#BC4646"/>
<path d="M46.6109 23.2146C47.0162 23.0657 47.3147 22.7486 47.4571 22.3681C47.4681 22.4867 47.49 22.608 47.5311 22.7266C47.794 23.4848 48.6074 23.879 49.3441 23.6088C49.6427 23.4985 49.8837 23.2973 50.048 23.0436C50.0069 23.2863 50.0206 23.5427 50.1083 23.788C50.3712 24.5462 51.1846 24.9405 51.9213 24.6703C51.9597 24.6565 51.998 24.64 52.0364 24.6207C52.0391 24.7778 52.0637 24.935 52.1185 25.0921C52.3814 25.8503 53.1948 26.2446 53.9316 25.9744C54.0247 25.9413 54.1123 25.8972 54.1945 25.8448C53.9781 26.206 53.9179 26.6609 54.0685 27.0938C54.3177 27.8106 55.0572 28.2021 55.7638 28.0119C55.4324 28.3951 55.3092 28.9493 55.4899 29.4676C55.7529 30.2258 56.5663 30.6201 57.303 30.3499C58.0425 30.0797 58.4259 29.2471 58.163 28.4889C57.9137 27.772 57.1743 27.3805 56.4677 27.5707C56.7991 27.1875 56.9223 26.6333 56.7415 26.1178C56.4786 25.3596 55.6652 24.9653 54.9285 25.2355C54.8354 25.2686 54.7477 25.3127 54.6656 25.3651C54.8819 25.0039 54.9422 24.549 54.7915 24.1161C54.5286 23.3579 53.7152 22.9637 52.9785 23.2339C52.9401 23.2477 52.9018 23.2642 52.8635 23.2835C52.8607 23.1263 52.8361 22.9692 52.7813 22.812C52.5184 22.0538 51.705 21.6596 50.9682 21.9298C50.6697 22.0401 50.4287 22.2413 50.2644 22.495C50.3055 22.2523 50.2918 21.9959 50.2041 21.7506C49.9412 20.9924 49.1278 20.5981 48.3911 20.8683C47.9857 21.0172 47.6872 21.3342 47.5448 21.7147C47.5338 21.5962 47.5119 21.4749 47.4708 21.3563C47.2079 20.5981 46.3945 20.2038 45.6578 20.474C44.9183 20.7442 44.5349 21.5769 44.7978 22.3351C45.0607 23.0905 45.8714 23.4848 46.6109 23.2146Z" fill="#FFE6BD"/>
<path d="M41.2156 24.5656C41.9496 24.2981 42.333 23.4738 42.0811 22.7211C42.4234 23.3001 43.1245 23.573 43.7709 23.3387C44.5103 23.0685 44.8938 22.2358 44.6308 21.4776C44.3679 20.7194 43.5545 20.3252 42.8178 20.5954C42.0838 20.8628 41.7004 21.6872 41.9523 22.4399C41.61 21.8609 40.9089 21.5879 40.2625 21.8223C39.523 22.0925 39.1396 22.9251 39.4025 23.6833C39.6627 24.4415 40.4761 24.8358 41.2156 24.5656Z" fill="#FFE6BD"/>
<path d="M48.8841 48.3095C48.728 47.8628 48.3829 47.5457 47.9748 47.4134C48.6321 47.0991 48.9635 46.3188 48.7143 45.6048C48.5089 45.0147 47.9693 44.6453 47.3915 44.6398C47.7283 44.2538 47.8543 43.6969 47.6736 43.1758C47.4271 42.47 46.704 42.0785 46.0084 42.2494C46.2576 41.8772 46.337 41.3919 46.1782 40.9315C45.9427 40.2533 45.2662 39.8673 44.5952 39.9886C44.6527 39.7294 44.6417 39.451 44.5486 39.1835C44.2912 38.4474 43.5161 38.0559 42.7958 38.282C42.8588 38.0145 42.8506 37.7278 42.7547 37.4493C42.5082 36.738 41.777 36.3465 41.0786 36.5257C41.1389 36.261 41.1307 35.9771 41.0348 35.7013C40.813 35.0617 40.1967 34.6812 39.5668 34.7419C39.7174 34.4083 39.7448 34.0168 39.6161 33.6418C39.4299 33.1097 38.9725 32.7568 38.4631 32.6879C38.6356 32.3432 38.6767 31.9297 38.5398 31.5354C38.422 31.1963 38.1947 30.9316 37.9126 30.7662C38.3864 30.3912 38.5973 29.7323 38.3837 29.123C38.3097 28.9107 38.192 28.7287 38.0468 28.5798C38.737 28.2821 39.0903 27.4825 38.8356 26.7491C38.8164 26.6967 38.7972 26.6471 38.7726 26.6002C38.8767 26.5865 38.978 26.5644 39.0821 26.5258C39.8215 26.2556 40.2049 25.423 39.942 24.6648C39.6791 23.9066 38.8657 23.5123 38.129 23.7825C37.3895 24.0527 37.0061 24.8853 37.269 25.6435C37.2882 25.6959 37.3073 25.7455 37.332 25.7924C37.2279 25.8062 37.1266 25.8283 37.0225 25.8669C36.283 26.1371 35.8996 26.9697 36.1625 27.7279C36.2365 27.9402 36.3543 28.1221 36.4994 28.271C35.8092 28.5688 35.4559 29.3683 35.7106 30.1017C35.8284 30.4408 36.0557 30.7055 36.3378 30.8709C35.864 31.2459 35.6531 31.9049 35.8668 32.5142C36.053 33.0463 36.5104 33.3992 37.0198 33.4681C36.8472 33.8127 36.8061 34.2263 36.9431 34.6206C37.1649 35.2602 37.7811 35.6407 38.4111 35.58C38.2604 35.9136 38.233 36.3051 38.3618 36.6801C38.6083 37.3914 39.3395 37.7829 40.0379 37.6037C39.9776 37.8684 39.9858 38.1524 40.0817 38.4281C40.3391 39.1642 41.1142 39.5557 41.8345 39.3297C41.7715 39.5971 41.7797 39.8838 41.8756 40.1623C42.1111 40.8405 42.7876 41.2265 43.4586 41.1052C43.4011 41.3644 43.412 41.6428 43.5052 41.9103C43.7516 42.6161 44.4747 43.0076 45.1703 42.8367C44.9211 43.2089 44.8417 43.6941 45.0005 44.1545C45.2059 44.7445 45.7455 45.114 46.3233 45.1195C45.9865 45.5055 45.8605 46.0624 46.0413 46.5835C46.1974 47.0302 46.5424 47.3472 46.9505 47.4796C46.2932 47.7939 45.9618 48.5741 46.2111 49.2882C46.3096 49.5722 46.4849 49.8065 46.7068 49.972C46.4904 49.9416 46.2658 49.9637 46.0467 50.0436C45.3073 50.3138 44.9238 51.1465 45.1868 51.9047C45.3018 52.2328 45.5209 52.4947 45.7893 52.6629C45.4579 52.4947 45.0635 52.4616 44.6883 52.5995C43.9488 52.8697 43.5654 53.7023 43.8283 54.4605C43.9488 54.8051 44.1844 55.0753 44.4719 55.2407C44.2227 55.1856 43.9571 55.1994 43.6996 55.2931C42.9601 55.5633 42.5767 56.396 42.8396 57.1541C42.9711 57.5291 43.234 57.8158 43.5599 57.9758C43.3874 57.9702 43.2094 57.9951 43.0368 58.0585C42.2974 58.3287 41.9139 59.1613 42.1769 59.9195C42.3686 60.4737 42.8561 60.8321 43.3929 60.879C43.3655 60.8872 43.3354 60.8955 43.308 60.9038C42.5685 61.174 42.1851 62.0066 42.448 62.7648C42.5575 63.0791 42.7657 63.3272 43.0204 63.4954C43.7352 63.2666 44.4199 62.9605 45.132 62.7234C45.2251 62.4284 45.2306 62.1003 45.121 61.786C44.9293 61.2319 44.4418 60.8734 43.905 60.8266C43.9324 60.8183 43.9625 60.81 43.9899 60.8018C44.7294 60.5316 45.1128 59.6989 44.8499 58.9407C44.7184 58.5658 44.4555 58.279 44.1296 58.1191C44.3021 58.1246 44.4802 58.0998 44.6527 58.0364C45.3922 57.7662 45.7756 56.9336 45.5127 56.1754C45.3922 55.8307 45.1566 55.5606 44.8691 55.3951C45.1183 55.4503 45.3839 55.4392 45.6414 55.3427C46.3809 55.0726 46.7643 54.2399 46.5014 53.4817C46.3863 53.1509 46.1672 52.8917 45.8961 52.7235C46.2275 52.8917 46.6219 52.9248 46.9971 52.7897C47.7365 52.5195 48.12 51.6869 47.8571 50.9287C47.7585 50.6447 47.5832 50.4103 47.3613 50.2449C47.5777 50.2752 47.8023 50.2532 48.0214 50.1732C48.7608 49.9003 49.147 49.0676 48.8841 48.3095Z" fill="#FFE6BD"/>
<path d="M58.0233 36.1756C58.1274 36.1618 58.2315 36.1397 58.3328 36.1011C59.0723 35.8309 59.4557 34.9983 59.1928 34.2401C58.9682 33.5922 58.3383 33.2089 57.6974 33.2834C57.7193 33.2779 57.7385 33.2724 57.7604 33.2641C58.4998 32.9939 58.8833 32.1613 58.6204 31.4031C58.3574 30.6449 57.544 30.2506 56.8073 30.5208C56.0678 30.791 55.6844 31.6236 55.9473 32.3818C56.1719 33.0297 56.8018 33.413 57.4427 33.3385C57.4208 33.344 57.4016 33.3495 57.3797 33.3578C56.6402 33.628 56.2568 34.4607 56.5197 35.2188C56.6676 35.6434 56.9853 35.9522 57.3687 36.0956C57.2647 36.1094 57.1606 36.1314 57.0593 36.17C56.3198 36.4402 55.9364 37.2729 56.1993 38.0311C56.3444 38.4474 56.6567 38.7534 57.0291 38.9023C56.8758 38.9051 56.7224 38.9299 56.569 38.985C55.8296 39.2552 55.4461 40.0878 55.7091 40.846C55.8213 41.1686 56.035 41.425 56.2979 41.5932C55.9555 41.4057 55.542 41.3589 55.1503 41.5022C54.4109 41.7724 54.0274 42.6051 54.2904 43.3632C54.4218 43.741 54.6875 44.0277 55.0134 44.1876C54.7587 44.127 54.4848 44.138 54.2192 44.2345C53.4797 44.5047 53.0963 45.3373 53.3592 46.0955C53.4085 46.2361 53.4742 46.3629 53.5564 46.476C53.214 46.283 52.7977 46.2361 52.4006 46.3822C51.6612 46.6524 51.2777 47.4851 51.5407 48.2433C51.6365 48.519 51.8063 48.7478 52.0172 48.9132C51.6694 48.7065 51.2367 48.6513 50.8286 48.8002C50.0891 49.0704 49.7057 49.903 49.9686 50.6612C50.0426 50.8708 50.1576 51.05 50.3 51.1989C49.996 51.0803 49.6509 51.0665 49.3195 51.1878C48.5801 51.458 48.1966 52.2907 48.4595 53.0489C48.6266 53.5286 49.0128 53.8622 49.4619 53.9752C49.3277 53.9835 49.1935 54.0083 49.0621 54.0579C48.3226 54.3281 47.9392 55.1608 48.2021 55.919C48.4075 56.509 48.947 56.8784 49.5249 56.8839C49.4565 56.8977 49.388 56.9143 49.3195 56.9391C48.5801 57.2093 48.1966 58.0419 48.4595 58.8001C48.7225 59.5583 49.5359 59.9526 50.2726 59.6824C51.0121 59.4122 51.3955 58.5795 51.1326 57.8214C50.9272 57.2313 50.3876 56.8619 49.8098 56.8564C49.8782 56.8426 49.9467 56.826 50.0152 56.8012C50.7546 56.531 51.1381 55.6984 50.8751 54.9402C50.7081 54.4605 50.3219 54.1269 49.8727 54.0138C50.0069 54.0056 50.1411 53.9807 50.2726 53.9311C51.0121 53.6609 51.3955 52.8283 51.1326 52.0701C51.0586 51.8606 50.9436 51.6813 50.8012 51.5325C51.1052 51.651 51.4503 51.6648 51.7817 51.5435C52.5211 51.2733 52.9046 50.4407 52.6416 49.6825C52.5458 49.4068 52.376 49.1779 52.1651 49.0125C52.5129 49.2193 52.9456 49.2744 53.3537 49.1255C54.0932 48.8553 54.4766 48.0227 54.2137 47.2645C54.1644 47.1239 54.0987 46.9971 54.0165 46.884C54.3588 47.077 54.7751 47.1239 55.1723 46.9778C55.9117 46.7076 56.2951 45.8749 56.0322 45.1167C55.9008 44.739 55.6351 44.4523 55.3092 44.2924C55.5639 44.353 55.8378 44.342 56.1034 44.2455C56.8429 43.9753 57.2263 43.1427 56.9634 42.3845C56.8511 42.0619 56.6375 41.8055 56.3746 41.6373C56.7169 41.8248 57.1305 41.8717 57.5221 41.7283C58.2616 41.4581 58.645 40.6255 58.3821 39.8673C58.2369 39.451 57.9247 39.1449 57.5522 38.996C57.7056 38.9933 57.859 38.9685 58.0124 38.9133C58.7518 38.6431 59.1352 37.8105 58.8723 37.0523C58.7244 36.6305 58.4067 36.3217 58.0233 36.1756Z" fill="#FFE6BD"/>
<path d="M42.3877 72.533C42.1878 72.8556 41.7359 72.9328 41.3799 72.7067C41.0238 72.4806 40.9006 72.0368 41.1005 71.7169C41.3004 71.3971 41.7523 71.3172 42.1084 71.5432C42.4644 71.7666 42.5904 72.2105 42.3877 72.533Z" fill="#A85000"/>
<path d="M42.1111 71.5433C41.8701 71.3889 41.5853 71.3806 41.3634 71.4881C41.3607 71.7363 41.4922 71.9899 41.7359 72.1443C41.9769 72.2987 42.2618 72.307 42.4836 72.1994C42.4836 71.9485 42.3521 71.6949 42.1111 71.5433Z" fill="#A0510A"/>
<path d="M41.9085 71.8631C41.4292 71.5598 41.2868 70.9174 41.5881 70.4349L43.423 67.5069C43.7243 67.0244 44.3624 66.881 44.839 67.1843C45.3182 67.4876 45.4607 68.13 45.1594 68.6097L43.3244 71.5377C43.0259 72.0202 42.3878 72.1664 41.9085 71.8631Z" fill="#A85000"/>
<path d="M43.4531 67.4684C43.5271 67.7744 43.738 68.0749 44.0611 68.279C44.461 68.5326 44.9184 68.5685 45.2552 68.4141C45.4196 67.9674 45.2552 67.4463 44.8389 67.1817C44.3761 66.8894 43.7653 67.019 43.4531 67.4684Z" fill="#A0510A"/>
<path d="M42.0536 71.2924C41.8975 71.1931 41.8482 70.9808 41.9468 70.8237L43.7133 68.0032C43.8119 67.846 44.0228 67.7964 44.1789 67.8956C44.335 67.9949 44.3843 68.2072 44.2857 68.3643L42.5192 71.1848C42.4206 71.3447 42.2097 71.3916 42.0536 71.2924Z" fill="#D67116"/>
<path d="M45.9426 67.7385C45.6578 68.1935 44.9594 68.2707 44.387 67.9067C43.8146 67.5428 43.5818 66.8783 43.8667 66.4234C44.1515 65.9685 44.8499 65.8913 45.4223 66.2552C45.9947 66.6192 46.2275 67.2836 45.9426 67.7385Z" fill="#A85000"/>
<path d="M45.6852 67.0245C45.5757 67.201 45.2497 67.1927 44.9567 67.008C44.6637 66.8232 44.5158 66.5282 44.628 66.3545C44.7403 66.1808 45.0635 66.1864 45.3566 66.3711C45.6496 66.5558 45.7975 66.8508 45.6852 67.0245Z" fill="#D67116"/>
<path d="M45.0963 66.6688C45.4715 65.6073 45.1648 64.7774 45.162 64.7664L45.2798 64.7223C45.2935 64.7554 45.5592 65.475 45.2962 66.451C45.7317 66.0484 46.4438 65.6652 46.6848 65.6542L46.6903 65.781C46.4876 65.792 45.5838 66.2607 45.2031 66.7294L45.0963 66.6688Z" fill="#773A08"/>
<path d="M49.7166 22.6604C49.9905 23.4352 50.8368 23.8404 51.6091 23.562C52.3787 23.2863 52.7813 22.4343 52.5047 21.6568C52.2308 20.8821 51.3845 20.4768 50.6122 20.7553C49.8426 21.0337 49.4427 21.8857 49.7166 22.6604Z" fill="#B75F08"/>
<path d="M50.4096 21.5107C50.426 21.8443 50.7547 22.098 51.1408 22.0759C51.527 22.0566 51.8283 21.7699 51.8118 21.4363C51.7954 21.1027 51.4667 20.849 51.0806 20.8711C50.6917 20.8931 50.3932 21.1799 50.4096 21.5107Z" fill="#D67116"/>
<path d="M47.0299 21.5742C47.3038 22.3489 48.15 22.7542 48.9224 22.4757C49.692 22.2 50.0946 21.3481 49.818 20.5733C49.5441 19.7986 48.6978 19.3933 47.9282 19.6718C47.1586 19.9447 46.756 20.7994 47.0299 21.5742Z" fill="#B75F08"/>
<path d="M47.7228 20.4244C47.7392 20.758 48.0679 21.0117 48.4541 20.9896C48.8402 20.9703 49.1415 20.6836 49.1251 20.35C49.1086 20.0164 48.78 19.7627 48.3938 19.7848C48.0076 19.8041 47.7064 20.0908 47.7228 20.4244Z" fill="#D67116"/>
<path d="M44.1789 21.1716C44.4528 21.9463 45.2991 22.3516 46.0714 22.0731C46.841 21.7974 47.2436 20.9455 46.967 20.1708C46.6931 19.396 45.8468 18.9907 45.0745 19.2692C44.3049 19.5421 43.905 20.3968 44.1789 21.1716Z" fill="#B75F08"/>
<path d="M44.8719 20.0218C44.8883 20.3554 45.2169 20.6091 45.6031 20.587C45.9893 20.5677 46.2905 20.281 46.2741 19.9474C46.2577 19.6138 45.929 19.3601 45.5429 19.3822C45.154 19.4015 44.8554 19.6882 44.8719 20.0218Z" fill="#D67116"/>
<path d="M41.2183 21.2984C41.4922 22.0731 42.3385 22.4784 43.1108 22.1999C43.8804 21.9242 44.283 21.0723 44.0064 20.2948C43.7325 19.52 42.8862 19.1147 42.1166 19.3932C41.3443 19.6689 40.9444 20.5236 41.2183 21.2984Z" fill="#B75F08"/>
<path d="M41.9113 20.1487C41.9277 20.4823 42.2564 20.7359 42.6425 20.7139C43.0287 20.6946 43.3299 20.4078 43.3135 20.0742C43.2971 19.7406 42.9684 19.487 42.5823 19.509C42.1934 19.5283 41.8921 19.8151 41.9113 20.1487Z" fill="#D67116"/>
<path d="M38.5535 22.5529C38.8274 23.3276 39.6737 23.7329 40.446 23.4544C41.2156 23.1787 41.6182 22.3268 41.3416 21.5493C41.0677 20.7746 40.2214 20.3693 39.4518 20.6477C38.6795 20.9262 38.2796 21.7781 38.5535 22.5529Z" fill="#B75F08"/>
<path d="M39.2463 21.4032C39.2628 21.7368 39.5914 21.9904 39.9776 21.9684C40.3638 21.9491 40.665 21.6624 40.6486 21.3287C40.6322 20.9951 40.3035 20.7415 39.9173 20.7635C39.5284 20.7856 39.2272 21.0723 39.2463 21.4032Z" fill="#D67116"/>
<path d="M36.3296 24.5545C36.6035 25.3292 37.4497 25.7345 38.2221 25.456C38.9917 25.1803 39.3943 24.3284 39.1176 23.5509C38.8438 22.7761 37.9975 22.3709 37.2279 22.6493C36.4583 22.925 36.0557 23.7797 36.3296 24.5545Z" fill="#B75F08"/>
<path d="M37.0225 23.4048C37.0389 23.7384 37.3676 23.992 37.7538 23.97C38.1399 23.9507 38.4412 23.6639 38.4247 23.3303C38.4083 22.9967 38.0797 22.7431 37.6935 22.7651C37.3046 22.7844 37.0061 23.0712 37.0225 23.4048Z" fill="#D67116"/>
<path d="M35.1766 26.6857C35.4505 27.4604 36.2967 27.8657 37.0691 27.5872C37.8387 27.3115 38.2413 26.4596 37.9646 25.6821C37.6908 24.9074 36.8445 24.5021 36.0722 24.7805C35.3026 25.059 34.9027 25.9109 35.1766 26.6857Z" fill="#B75F08"/>
<path d="M35.8695 25.536C35.886 25.8696 36.2146 26.1233 36.6008 26.1012C36.987 26.0819 37.2882 25.7952 37.2718 25.4616C37.2554 25.1279 36.9267 24.8743 36.5405 24.8964C36.1516 24.9184 35.8531 25.2024 35.8695 25.536Z" fill="#D67116"/>
<path d="M34.7055 29.1148C34.9794 29.8895 35.8256 30.2948 36.598 30.0163C37.3676 29.7406 37.7702 28.8887 37.4935 28.1112C37.2197 27.3364 36.3734 26.9312 35.6038 27.2096C34.8315 27.4853 34.4316 28.3373 34.7055 29.1148Z" fill="#B75F08"/>
<path d="M35.3984 27.9651C35.4149 28.2987 35.7435 28.5523 36.1297 28.5303C36.5159 28.511 36.8171 28.2242 36.8007 27.8906C36.7843 27.557 36.4556 27.3034 36.0694 27.3254C35.6805 27.3447 35.3793 27.6315 35.3984 27.9651Z" fill="#D67116"/>
<path d="M34.8671 31.5823C35.141 32.3571 35.9873 32.7624 36.7596 32.4839C37.5292 32.2082 37.9318 31.3563 37.6552 30.5815C37.3813 29.8068 36.535 29.4015 35.7627 29.68C34.9931 29.9557 34.5905 30.8076 34.8671 31.5823Z" fill="#B75F08"/>
<path d="M35.5573 30.4326C35.5737 30.7662 35.9024 31.0199 36.2885 30.9978C36.6747 30.9785 36.976 30.6918 36.9595 30.3582C36.9431 30.0246 36.6144 29.7709 36.2283 29.793C35.8421 29.815 35.5408 30.1018 35.5573 30.4326Z" fill="#D67116"/>
<path d="M35.99 33.7383C36.2639 34.513 37.1101 34.9183 37.8825 34.6399C38.6521 34.3641 39.0547 33.5122 38.778 32.7347C38.5042 31.96 37.6579 31.5547 36.8883 31.8332C36.1187 32.1116 35.7161 32.9636 35.99 33.7383Z" fill="#B75F08"/>
<path d="M36.6829 32.5886C36.6993 32.9222 37.028 33.1759 37.4141 33.1538C37.8003 33.1345 38.1016 32.8478 38.0851 32.5142C38.0687 32.1806 37.7401 31.9269 37.3539 31.949C36.9677 31.971 36.6665 32.2578 36.6829 32.5886Z" fill="#D67116"/>
<path d="M37.4716 35.8447C37.7455 36.6194 38.5918 37.0247 39.3641 36.7462C40.1337 36.4705 40.5363 35.6186 40.2597 34.8438C39.9858 34.0691 39.1395 33.6638 38.3672 33.9423C37.5976 34.218 37.1977 35.0699 37.4716 35.8447Z" fill="#B75F08"/>
<path d="M38.1646 34.6949C38.181 35.0285 38.5096 35.2822 38.8958 35.2601C39.282 35.2408 39.5832 34.9541 39.5668 34.6205C39.5504 34.2869 39.2217 34.0332 38.8356 34.0553C38.4467 34.0773 38.1454 34.3641 38.1646 34.6949Z" fill="#D67116"/>
<path d="M39.2628 37.634C39.5367 38.4088 40.383 38.8141 41.1553 38.5356C41.9249 38.2599 42.3275 37.408 42.0509 36.6305C41.777 35.8557 40.9307 35.4504 40.1611 35.7289C39.3915 36.0074 38.9889 36.8593 39.2628 37.634Z" fill="#B75F08"/>
<path d="M39.9557 36.4844C39.9722 36.818 40.3008 37.0716 40.687 37.0496C41.0731 37.0303 41.3744 36.7435 41.358 36.4099C41.3415 36.0763 41.0129 35.8227 40.6267 35.8447C40.2406 35.8668 39.9393 36.1508 39.9557 36.4844Z" fill="#D67116"/>
<path d="M41.1361 39.4069C41.41 40.1816 42.2563 40.5869 43.0286 40.3084C43.7982 40.0327 44.2008 39.1808 43.9242 38.4033C43.6503 37.6286 42.8041 37.2233 42.0345 37.5017C41.2621 37.7802 40.8623 38.6321 41.1361 39.4069Z" fill="#B75F08"/>
<path d="M41.829 38.2572C41.8454 38.5908 42.1741 38.8444 42.5602 38.8224C42.9464 38.8031 43.2477 38.5164 43.2312 38.1827C43.2148 37.8491 42.8862 37.5955 42.5 37.6175C42.1111 37.6396 41.8098 37.9263 41.829 38.2572Z" fill="#D67116"/>
<path d="M42.8341 41.1962C43.108 41.9709 43.9543 42.3762 44.7266 42.0977C45.4962 41.822 45.8988 40.9701 45.6222 40.1926C45.3483 39.4179 44.502 39.0126 43.7325 39.291C42.9601 39.5695 42.5603 40.4214 42.8341 41.1962Z" fill="#B75F08"/>
<path d="M43.527 40.0465C43.5434 40.3801 43.8721 40.6338 44.2583 40.6117C44.6444 40.5924 44.9457 40.3057 44.9293 39.9721C44.9128 39.6384 44.5842 39.3848 44.198 39.4069C43.8091 39.4289 43.5106 39.7156 43.527 40.0465Z" fill="#D67116"/>
<path d="M44.3925 43.4929C44.6664 44.2676 45.5126 44.6729 46.285 44.3944C47.0546 44.1187 47.4572 43.2668 47.1805 42.492C46.9067 41.7173 46.0604 41.312 45.2908 41.5905C44.5185 41.8662 44.1159 42.7181 44.3925 43.4929Z" fill="#B75F08"/>
<path d="M45.0827 42.3431C45.0991 42.6767 45.4278 42.9304 45.8139 42.9083C46.2001 42.889 46.5014 42.6023 46.4849 42.2687C46.4685 41.9351 46.1398 41.6814 45.7537 41.7035C45.3675 41.7255 45.0662 42.0095 45.0827 42.3431Z" fill="#D67116"/>
<path d="M45.4771 45.9769C45.751 46.7517 46.5972 47.157 47.3696 46.8785C48.1392 46.6028 48.5418 45.7509 48.2651 44.9734C47.9913 44.1986 47.145 43.7933 46.3754 44.0718C45.6031 44.3503 45.2032 45.2022 45.4771 45.9769Z" fill="#B75F08"/>
<path d="M46.1699 44.8299C46.1864 45.1636 46.515 45.4172 46.9012 45.3951C47.2873 45.3758 47.5886 45.0891 47.5722 44.7555C47.5557 44.4219 47.2271 44.1682 46.8409 44.1903C46.452 44.2096 46.1508 44.4963 46.1699 44.8299Z" fill="#D67116"/>
<path d="M45.6523 48.7478C45.9262 49.5226 46.7725 49.9278 47.5448 49.6494C48.3144 49.3737 48.717 48.5217 48.4404 47.7442C48.1665 46.9695 47.3202 46.5642 46.5506 46.8427C45.7811 47.1211 45.3785 47.9731 45.6523 48.7478Z" fill="#B75F08"/>
<path d="M46.3453 47.5981C46.3617 47.9317 46.6903 48.1854 47.0765 48.1633C47.4627 48.144 47.7639 47.8573 47.7475 47.5237C47.7311 47.1901 47.4024 46.9364 47.0162 46.9585C46.6273 46.9805 46.3288 47.2645 46.3453 47.5981Z" fill="#D67116"/>
<path d="M44.5843 51.4223C44.8581 52.197 45.7044 52.6023 46.4767 52.3238C47.2463 52.0481 47.6489 51.1962 47.3723 50.4187C47.0984 49.6439 46.2522 49.2386 45.4826 49.5171C44.7102 49.7956 44.3076 50.6475 44.5843 51.4223Z" fill="#A85000"/>
<path d="M45.2744 50.2726C45.2909 50.6062 45.6195 50.8598 46.0057 50.8378C46.3919 50.8185 46.6931 50.5317 46.6767 50.1981C46.6603 49.8645 46.3316 49.6109 45.9454 49.6329C45.5593 49.655 45.258 49.9417 45.2744 50.2726Z" fill="#D67116"/>
<path d="M43.1683 54.036C43.4422 54.8107 44.2884 55.216 45.0608 54.9375C45.8304 54.6618 46.233 53.8099 45.9563 53.0351C45.6825 52.2604 44.8362 51.8551 44.0639 52.1336C43.2943 52.4093 42.8944 53.2612 43.1683 54.036Z" fill="#A85000"/>
<path d="M43.8612 52.8862C43.8777 53.2198 44.2063 53.4735 44.5925 53.4514C44.9786 53.4321 45.2799 53.1454 45.2635 52.8118C45.247 52.4782 44.9184 52.2245 44.5322 52.2466C44.1433 52.2686 43.842 52.5526 43.8612 52.8862Z" fill="#D67116"/>
<path d="M42.1385 56.7902C42.4124 57.5649 43.2586 57.9702 44.031 57.6917C44.8006 57.416 45.2032 56.5641 44.9265 55.7866C44.6527 55.0119 43.8064 54.6066 43.0341 54.885C42.2645 55.1635 41.8646 56.0154 42.1385 56.7902Z" fill="#A85000"/>
<path d="M42.8314 55.6405C42.8479 55.9741 43.1765 56.2277 43.5627 56.2057C43.9488 56.1864 44.2501 55.8997 44.2337 55.566C44.2172 55.2324 43.8886 54.9788 43.5024 55.0008C43.1135 55.0229 42.8123 55.3069 42.8314 55.6405Z" fill="#D67116"/>
<path d="M41.4456 59.619C41.7195 60.3937 42.5657 60.799 43.3381 60.5205C44.1077 60.2448 44.5103 59.3929 44.2337 58.6181C43.9598 57.8434 43.1135 57.4381 42.3439 57.7166C41.5716 57.9923 41.1717 58.8442 41.4456 59.619Z" fill="#A85000"/>
<path d="M42.1385 58.4692C42.1549 58.8028 42.4835 59.0565 42.8697 59.0344C43.2559 59.0151 43.5571 58.7284 43.5407 58.3948C43.5243 58.0612 43.1956 57.8075 42.8095 57.8296C42.4206 57.8516 42.122 58.1356 42.1385 58.4692Z" fill="#D67116"/>
<path d="M41.7276 62.5333C42.0015 63.308 42.8478 63.7133 43.6201 63.4348C44.3897 63.1591 44.7923 62.3072 44.5157 61.5324C44.2418 60.7577 43.3956 60.3524 42.626 60.6309C41.8564 60.9038 41.4538 61.7585 41.7276 62.5333Z" fill="#A85000"/>
<path d="M42.4206 61.3835C42.437 61.7171 42.7656 61.9708 43.1518 61.9487C43.538 61.9294 43.8392 61.6427 43.8228 61.3091C43.8064 60.9755 43.4777 60.7218 43.0916 60.7439C42.7054 60.7632 42.4041 61.0499 42.4206 61.3835Z" fill="#D67116"/>
<path d="M43.2806 65.0118C43.5544 65.7865 44.4007 66.1918 45.173 65.9133C45.9426 65.6376 46.3452 64.7857 46.0686 64.011C45.7947 63.2362 44.9485 62.8309 44.1789 63.1094C43.4065 63.3851 43.0067 64.237 43.2806 65.0118Z" fill="#A85000"/>
<path d="M43.9734 63.862C43.9899 64.1957 44.3185 64.4493 44.7047 64.4272C45.0936 64.4079 45.3921 64.1212 45.3757 63.7876C45.3592 63.454 45.0306 63.2003 44.6444 63.2224C44.2555 63.2445 43.957 63.5312 43.9734 63.862Z" fill="#D67116"/>
<path d="M45.9755 66.1642C46.2494 66.939 47.0957 67.3443 47.868 67.0658C48.6376 66.7901 49.0402 65.9382 48.7636 65.1634C48.4897 64.3887 47.6434 63.9834 46.8738 64.2619C46.1015 64.5348 45.7016 65.3895 45.9755 66.1642Z" fill="#A85000"/>
<path d="M46.6684 65.0145C46.6848 65.3481 47.0135 65.6018 47.3996 65.5797C47.7858 65.5604 48.0871 65.2737 48.0706 64.9401C48.0542 64.6065 47.7255 64.3528 47.3394 64.3749C46.9505 64.3942 46.6519 64.6809 46.6684 65.0145Z" fill="#D67116"/>
<path d="M48.3034 64.3914C48.5773 65.1662 49.4235 65.5715 50.1959 65.293C50.9655 65.0173 51.3681 64.1653 51.0914 63.3906C50.8176 62.6159 49.9713 62.2106 49.2017 62.489C48.4294 62.762 48.0295 63.6139 48.3034 64.3914Z" fill="#A85000"/>
<path d="M48.9963 63.2417C49.0127 63.5753 49.3413 63.8289 49.7275 63.8069C50.1137 63.7876 50.4149 63.5009 50.3985 63.1672C50.3821 62.8336 50.0534 62.58 49.6673 62.602C49.2783 62.6213 48.9798 62.9081 48.9963 63.2417Z" fill="#D67116"/>
<path d="M47.9995 61.4551C48.2733 62.2299 49.1196 62.6352 49.8919 62.3567C50.6615 62.081 51.0641 61.2291 50.7875 60.4543C50.5136 59.6796 49.6674 59.2743 48.895 59.5528C48.1254 59.8285 47.7256 60.6804 47.9995 61.4551Z" fill="#A85000"/>
<path d="M48.6924 60.3054C48.7089 60.639 49.0375 60.8927 49.4237 60.8706C49.8098 60.8513 50.1111 60.5646 50.0947 60.231C50.0782 59.8974 49.7496 59.6437 49.3634 59.6658C48.9745 59.6878 48.676 59.9746 48.6924 60.3054Z" fill="#D67116"/>
<path d="M47.9995 58.4747C48.2733 59.2495 49.1196 59.6548 49.8919 59.3763C50.6615 59.1006 51.0641 58.2487 50.7875 57.4712C50.5136 56.6964 49.6674 56.2911 48.895 56.5696C48.1254 56.8481 47.7256 57.7 47.9995 58.4747Z" fill="#A85000"/>
<path d="M48.6924 57.3251C48.7089 57.6587 49.0375 57.9123 49.4237 57.8903C49.8098 57.871 50.1111 57.5842 50.0947 57.2506C50.0782 56.917 49.7496 56.6634 49.3634 56.6854C48.9745 56.7075 48.676 56.9942 48.6924 57.3251Z" fill="#D67116"/>
<path d="M47.7311 55.5247C48.0049 56.2994 48.8512 56.7047 49.6236 56.4262C50.3931 56.1505 50.7957 55.2986 50.5191 54.5211C50.2453 53.7464 49.399 53.3411 48.6294 53.6195C47.8598 53.898 47.4572 54.7499 47.7311 55.5247Z" fill="#A85000"/>
<path d="M48.424 54.375C48.4404 54.7086 48.7691 54.9622 49.1552 54.9402C49.5414 54.9209 49.8427 54.6342 49.8262 54.3005C49.8098 53.9669 49.4811 53.7133 49.095 53.7353C48.7061 53.7574 48.4076 54.0441 48.424 54.375Z" fill="#D67116"/>
<path d="M47.9995 52.5912C48.2733 53.3659 49.1196 53.7712 49.8919 53.4928C50.6615 53.2171 51.0641 52.3651 50.7875 51.5876C50.5136 50.8129 49.6674 50.4076 48.895 50.6861C48.1254 50.9645 47.7256 51.8165 47.9995 52.5912Z" fill="#A85000"/>
<path d="M48.6924 51.4415C48.7089 51.7751 49.0375 52.0288 49.4237 52.0067C49.8098 51.9874 50.1111 51.7007 50.0947 51.3671C50.0782 51.0335 49.7496 50.7798 49.3634 50.8019C48.9745 50.8239 48.676 51.1107 48.6924 51.4415Z" fill="#D67116"/>
<path d="M49.5715 50.1485C49.8454 50.9232 50.6917 51.3285 51.464 51.05C52.2336 50.7743 52.6362 49.9224 52.3596 49.1449C52.0857 48.3701 51.2394 47.9648 50.4698 48.2433C49.7002 48.5218 49.2976 49.3737 49.5715 50.1485Z" fill="#B75F08"/>
<path d="M50.2644 48.9988C50.2809 49.3324 50.6095 49.586 50.9957 49.564C51.3819 49.5447 51.6831 49.2579 51.6667 48.9243C51.6503 48.5907 51.3216 48.3371 50.9354 48.3591C50.5465 48.3812 50.248 48.6679 50.2644 48.9988Z" fill="#D67116"/>
<path d="M51.2092 47.6753C51.4831 48.45 52.3294 48.8553 53.1017 48.5769C53.8713 48.3012 54.2739 47.4492 53.9973 46.6717C53.7234 45.897 52.8771 45.4917 52.1075 45.7702C51.3379 46.0486 50.9353 46.9006 51.2092 47.6753Z" fill="#B75F08"/>
<path d="M51.9021 46.5256C51.9186 46.8592 52.2472 47.1129 52.6334 47.0908C53.0195 47.0715 53.3208 46.7848 53.3044 46.4512C53.2879 46.1176 52.9593 45.8639 52.5731 45.886C52.187 45.908 51.8857 46.1948 51.9021 46.5256Z" fill="#D67116"/>
<path d="M53.1072 45.4807C53.3811 46.2554 54.2274 46.6607 54.9997 46.3822C55.7693 46.1065 56.1719 45.2546 55.8953 44.4798C55.6214 43.7051 54.7751 43.2998 54.0028 43.5783C53.2332 43.854 52.8306 44.7059 53.1072 45.4807Z" fill="#B75F08"/>
<path d="M53.8002 44.3309C53.8166 44.6645 54.1453 44.9182 54.5314 44.8961C54.9176 44.8768 55.2189 44.5901 55.2024 44.2565C55.186 43.9229 54.8573 43.6692 54.4712 43.6913C54.0823 43.7133 53.781 44.0001 53.8002 44.3309Z" fill="#D67116"/>
<path d="M54.0767 42.6878C54.3506 43.4625 55.1969 43.8678 55.9692 43.5894C56.7388 43.3137 57.1414 42.4617 56.8648 41.687C56.5909 40.9123 55.7446 40.507 54.975 40.7854C54.2027 41.0584 53.8028 41.9131 54.0767 42.6878Z" fill="#B75F08"/>
<path d="M54.7697 41.5381C54.7861 41.8717 55.1147 42.1253 55.5009 42.1033C55.8871 42.084 56.1883 41.7972 56.1719 41.4636C56.1555 41.13 55.8268 40.8764 55.4407 40.8984C55.0518 40.9177 54.7505 41.2045 54.7697 41.5381Z" fill="#D67116"/>
<path d="M55.5557 40.1127C55.8295 40.8875 56.6758 41.2928 57.4481 41.0143C58.2177 40.7386 58.6203 39.8867 58.3437 39.1119C58.0698 38.3372 57.2236 37.9319 56.454 38.2104C55.6844 38.4833 55.2818 39.3352 55.5557 40.1127Z" fill="#B75F08"/>
<path d="M56.2486 38.963C56.265 39.2966 56.5936 39.5503 56.9798 39.5282C57.366 39.5089 57.6672 39.2222 57.6508 38.8886C57.6344 38.555 57.3057 38.3013 56.9196 38.3234C56.5334 38.3427 56.2321 38.6294 56.2486 38.963Z" fill="#D67116"/>
<path d="M56.0678 37.2316C56.3417 38.0063 57.1879 38.4116 57.9603 38.1331C58.7299 37.8574 59.1325 37.0055 58.8558 36.228C58.582 35.4533 57.7357 35.048 56.9661 35.3264C56.1938 35.6049 55.7939 36.4568 56.0678 37.2316Z" fill="#B75F08"/>
<path d="M56.7608 36.0819C56.7772 36.4155 57.1058 36.6692 57.492 36.6471C57.8782 36.6278 58.1794 36.3411 58.163 36.0075C58.1466 35.6738 57.8179 35.4202 57.4318 35.4423C57.0428 35.4643 56.7416 35.751 56.7608 36.0819Z" fill="#D67116"/>
<path d="M56.402 34.3558C56.6758 35.1306 57.5221 35.5359 58.2945 35.2574C59.064 34.9817 59.4666 34.1298 59.19 33.3523C58.9161 32.5775 58.0699 32.1722 57.3003 32.4507C56.5307 32.7264 56.1281 33.5784 56.402 34.3558Z" fill="#B75F08"/>
<path d="M57.0949 33.2062C57.1113 33.5398 57.44 33.7934 57.8261 33.7714C58.2123 33.7521 58.5136 33.4653 58.4971 33.1317C58.4807 32.7981 58.152 32.5445 57.7659 32.5665C57.3797 32.5858 57.0784 32.8726 57.0949 33.2062Z" fill="#D67116"/>
<path d="M55.8077 31.4527C56.0815 32.2274 56.9278 32.6327 57.7001 32.3543C58.4697 32.0786 58.8723 31.2266 58.5957 30.4519C58.3218 29.6771 57.4756 29.2719 56.706 29.5503C55.9336 29.826 55.5338 30.678 55.8077 31.4527Z" fill="#B75F08"/>
<path d="M56.5005 30.303C56.5169 30.6366 56.8456 30.8902 57.2317 30.8682C57.6179 30.8461 57.9192 30.5621 57.9027 30.2285C57.8863 29.8949 57.5577 29.6413 57.1715 29.6633C56.7826 29.6854 56.4813 29.9694 56.5005 30.303Z" fill="#D67116"/>
<path d="M55.3257 28.4724C55.5995 29.2471 56.4458 29.6524 57.2182 29.3739C57.9877 29.0982 58.3903 28.2463 58.1137 27.4715C57.8399 26.6968 56.9936 26.2915 56.224 26.57C55.4544 26.8429 55.0518 27.6976 55.3257 28.4724Z" fill="#B75F08"/>
<path d="M56.0186 27.3226C56.035 27.6562 56.3637 27.9099 56.7498 27.8878C57.1387 27.8685 57.4373 27.5818 57.4208 27.2482C57.4044 26.9146 57.0758 26.6609 56.6896 26.683C56.3007 26.7023 56.0022 26.989 56.0186 27.3226Z" fill="#D67116"/>
<path d="M53.8467 26.0433C54.1206 26.818 54.9669 27.2233 55.7392 26.9448C56.5088 26.6691 56.9114 25.8172 56.6348 25.0425C56.3609 24.2677 55.5146 23.8624 54.745 24.1409C53.9727 24.4166 53.5701 25.2685 53.8467 26.0433Z" fill="#B75F08"/>
<path d="M54.5369 24.8935C54.5533 25.2271 54.882 25.4808 55.2681 25.4587C55.6543 25.4394 55.9556 25.1527 55.9391 24.8191C55.9227 24.4855 55.5941 24.2318 55.2079 24.2539C54.8217 24.276 54.5205 24.5599 54.5369 24.8935Z" fill="#D67116"/>
<path d="M51.8118 23.9948C52.0857 24.7696 52.932 25.1748 53.7043 24.8964C54.4739 24.6207 54.8765 23.7687 54.5999 22.994C54.326 22.2193 53.4797 21.814 52.7074 22.0924C51.9378 22.3681 51.538 23.2201 51.8118 23.9948Z" fill="#B75F08"/>
<path d="M52.5048 22.8451C52.5212 23.1787 52.8499 23.4323 53.236 23.4103C53.6222 23.391 53.9235 23.1042 53.907 22.7706C53.8906 22.437 53.562 22.1834 53.1758 22.2054C52.7869 22.2275 52.4884 22.5142 52.5048 22.8451Z" fill="#D67116"/>
</svg>
